<svg width="256" height="257" xmlns="http://www.w3.org/2000/svg" preserveAspectRatio="xMidYMid meet" class="iconify iconify--logos" role="img" aria-hidden="true">
 <defs>
  <linearGradient y2="89.03%" y1="2.242%" x2="50.316%" x1="43.376%" id="IconifyId1813088fe1fbc01fb467">
   <stop stop-color="#FFEA83" offset="0%"/>
   <stop stop-color="#FFDD35" offset="8.333%"/>
   <stop stop-color="#FFA800" offset="100%"/>
  </linearGradient>
 </defs>
 <g>
  <title>Layer 1</title>
  <path stroke="null" id="svg_2" d="m163.66758,6.90331l-101.12167,19.81481a3.71343,3.71343 0 0 0 -2.99302,3.42481l-6.22011,105.05782a3.71343,3.71343 0 0 0 4.54179,3.83842l28.15412,-6.49737c2.63395,-0.60792 5.01449,1.71241 4.47248,4.36112l-8.36431,40.96023c-0.56247,2.75667 2.02489,5.11335 4.71678,4.29522l17.38995,-5.28266c2.69531,-0.81814 5.28607,1.54537 4.71565,4.30431l-13.29245,64.33848c-0.83177,4.02478 4.52134,6.21897 6.75304,2.76916l1.49196,-2.30442l82.39998,-164.44544c1.38061,-2.75326 -0.99994,-5.89286 -4.0225,-5.3088l-28.98135,5.59287c-2.72258,0.52497 -5.03949,-2.01125 -4.27135,-4.67474l18.91486,-65.57023c0.76928,-2.67031 -1.55673,-5.20767 -4.28272,-4.6736l-0.00114,0z" fill="url(#IconifyId1813088fe1fbc01fb467)"/>
 </g>
</svg>